<?xml version="1.0" encoding="UTF-8"?>
<svg xmlns="http://www.w3.org/2000/svg" xmlns:xlink="http://www.w3.org/1999/xlink" width="150px" height="150px" viewBox="0 0 157 157" version="1.1">
<g id="surface1">
<path style=" stroke:none;fill-rule:nonzero;fill:#927dfc;fill-opacity:1;" d="M 126.324219 68.929688 C 124.332031 68.929688 122.359375 69.121094 120.425781 69.5 C 119.546875 45.757812 99.957031 26.71875 76.003906 26.71875 C 53.980469 26.71875 35.34375 43.015625 32.074219 64.4375 C 14.3125 64.871094 0 79.453125 0 97.316406 C 0 115.449219 14.753906 130.203125 32.886719 130.203125 L 60.398438 130.203125 C 62.480469 130.203125 64.167969 128.515625 64.167969 126.433594 C 64.167969 124.355469 62.480469 122.667969 60.398438 122.667969 L 32.886719 122.667969 C 18.90625 122.667969 7.535156 111.296875 7.535156 97.316406 C 7.535156 83.335938 18.90625 71.960938 32.886719 71.960938 C 33.574219 71.960938 34.300781 71.996094 35.105469 72.066406 L 38.921875 72.394531 L 39.1875 68.574219 C 40.523438 49.328125 56.695312 34.25 76.003906 34.25 C 96.363281 34.25 112.925781 50.8125 112.925781 71.171875 C 112.925781 72.105469 112.878906 73.105469 112.789062 74.226562 L 112.292969 80.238281 L 117.914062 78.046875 C 120.601562 76.996094 123.433594 76.464844 126.324219 76.464844 C 139.085938 76.464844 149.46875 86.84375 149.46875 99.605469 C 149.46875 112.367188 139.085938 122.75 126.324219 122.75 C 125.988281 122.75 115.972656 122.730469 106 122.710938 C 96.097656 122.6875 86.238281 122.667969 85.910156 122.667969 C 83.566406 122.667969 82.339844 121.539062 82.265625 119.3125 L 82.265625 78.652344 L 86.355469 83.507812 C 87.695312 85.101562 90.070312 85.304688 91.660156 83.964844 C 93.253906 82.625 93.457031 80.25 92.117188 78.65625 L 83.058594 67.894531 C 81.917969 66.539062 80.277344 65.761719 78.558594 65.761719 C 76.839844 65.761719 75.203125 66.539062 74.0625 67.894531 L 65.003906 78.65625 C 63.664062 80.25 63.867188 82.625 65.457031 83.964844 C 66.164062 84.558594 67.027344 84.847656 67.882812 84.847656 C 68.953125 84.847656 70.019531 84.394531 70.765625 83.507812 L 74.734375 78.792969 L 74.734375 119.351562 C 74.734375 123.710938 77.710938 130.203125 85.910156 130.203125 C 86.238281 130.203125 96.089844 130.222656 105.984375 130.242188 C 115.964844 130.261719 125.988281 130.28125 126.324219 130.28125 C 143.238281 130.28125 157 116.519531 157 99.605469 C 157 82.691406 143.238281 68.929688 126.324219 68.929688 Z M 126.324219 68.929688 "/>
</g>
</svg>
